<svg version="1.1" id="Layer_1" xmlns="http://www.w3.org/2000/svg" xmlns:xlink="http://www.w3.org/1999/xlink" x="0px" y="0px"
	 width="100%" viewBox="0 0 878 178" enable-background="new 0 0 878 178" xml:space="preserve">
<path fill="#FEFEFF" opacity="1.000000" stroke="none" 
	d="
M164.000000,1.000000 
	C164.750000,1.000000 165.500000,1.000000 166.626190,1.405656 
	C167.566727,4.470869 168.131058,7.130427 169.047958,11.451605 
	C173.787521,7.307039 177.393768,4.153520 181.000000,1.000000 
	C313.688690,1.000000 446.377350,1.000000 579.487793,1.396522 
	C576.657898,12.830177 578.614197,21.094107 585.616821,26.529034 
	C585.065247,28.957209 584.568054,30.988039 583.714111,32.984314 
	C581.278992,30.749149 579.200623,28.548542 576.878174,26.089476 
	C573.141479,28.608438 569.228394,31.064913 565.574036,33.859737 
	C564.825500,34.432186 564.626404,36.413719 564.983643,37.472595 
	C565.185791,38.071838 567.125732,38.528141 568.121033,38.310043 
	C569.525635,38.002251 570.922058,37.188053 572.069214,36.273373 
	C574.349670,34.455078 575.706482,34.986164 577.249939,37.339954 
	C580.212891,41.858570 578.520691,45.322586 571.286987,48.093185 
	C564.965698,47.433823 559.010254,46.853878 553.039734,45.867210 
	C552.195129,43.321949 551.107483,41.243999 550.588318,39.032570 
	C549.416443,34.041874 549.151001,29.338833 553.865601,25.491974 
	C557.876282,22.219507 561.685974,21.158068 566.682251,23.116148 
	C568.357971,23.772858 570.838318,22.376450 573.801208,21.734158 
	C569.228088,16.172394 564.288208,14.928833 559.366882,16.253992 
	C552.406494,18.128222 546.709290,22.414146 544.144226,29.472685 
	C541.654175,36.324886 544.364685,42.428787 547.905090,48.395027 
	C546.847900,49.108112 545.970215,49.580273 544.750244,49.988220 
	C541.784668,47.718788 539.376221,45.168499 536.496460,43.375103 
	C528.836731,38.604874 517.146606,41.159683 514.003906,48.007751 
	C513.999939,48.000832 514.012756,48.006271 513.657043,48.039337 
	C507.526001,51.297684 507.843018,56.762074 508.066895,62.567646 
	C504.298615,72.030724 500.569977,81.132950 496.318787,91.510925 
	C494.451843,75.835617 492.769257,61.708076 491.063080,47.382339 
	C482.016815,47.382339 473.693848,47.199661 465.393005,47.546761 
	C463.855988,47.611034 461.737274,49.511192 461.032623,51.078934 
	C457.489563,58.961388 454.334259,67.017868 451.027222,75.006798 
	C448.940094,80.048805 446.825684,85.079521 444.178680,91.420425 
	C442.286072,75.858971 440.581726,61.845516 438.864380,47.725166 
	C428.150513,47.725166 417.764771,47.725166 407.451752,47.725166 
	C407.304138,48.389515 407.131561,48.724056 407.176697,49.026058 
	C410.151978,68.927917 413.186096,88.821136 416.088440,108.733574 
	C416.491302,111.497368 417.738525,112.247162 420.369965,112.203720 
	C428.530121,112.069000 436.697601,112.015594 444.854370,112.229530 
	C447.755402,112.305618 448.927124,111.004448 449.982910,108.641998 
	C453.578918,100.595551 457.329590,92.617836 461.073730,84.638519 
	C461.569000,83.583015 462.367889,82.669991 463.563293,80.892159 
	C465.513977,91.992798 467.277069,102.025803 469.057098,112.155373 
	C475.562408,112.155373 481.439972,111.631248 487.186646,112.275307 
	C496.351624,113.302444 503.423431,111.666405 505.693817,101.383804 
	C505.725464,101.240555 505.901550,101.129204 506.357727,100.965012 
	C510.621429,98.198601 514.628845,95.586548 518.380432,92.647926 
	C519.173096,92.027039 519.613708,89.889740 519.146301,89.039513 
	C518.713745,88.252571 516.844360,87.968918 515.613647,87.982834 
	C514.208252,87.998726 512.809387,88.588425 511.545715,88.577515 
	C513.152832,85.153778 514.621826,82.081284 516.467468,79.009895 
	C520.542542,80.009850 524.240967,81.008690 527.981445,82.444489 
	C527.810669,85.534279 527.539124,88.183929 527.395020,90.840500 
	C526.757202,102.598412 531.299866,110.460388 540.691406,112.542000 
	C549.455261,114.484489 557.895203,113.221100 565.231018,107.507439 
	C567.108826,106.044861 568.846436,104.402130 570.985962,102.549980 
	C571.538330,104.204018 572.132141,105.259148 572.214966,106.352951 
	C572.612976,111.608192 575.703918,112.606560 580.350281,112.234032 
	C584.980835,111.862762 589.671082,112.002510 594.322449,112.206398 
	C597.311340,112.337418 598.609558,111.552849 599.244934,108.306244 
	C601.860229,94.942001 604.892883,81.659691 607.744812,68.341408 
	C611.466431,50.961636 615.213928,33.586922 618.785889,16.176302 
	C619.126770,14.514488 618.302612,12.613630 618.013550,10.442840 
	C617.005188,7.041288 616.002625,4.020643 615.000000,0.999998 
	C617.700012,1.000000 620.400085,1.000000 623.557983,1.400346 
	C625.190674,6.466118 626.365540,11.131544 627.539490,15.793333 
	C632.828491,14.119833 633.630859,11.086694 632.036255,6.786883 
	C631.365662,4.978518 631.326294,2.936052 631.000000,1.000002 
	C713.644653,1.000000 796.289307,1.000000 878.966980,1.000000 
	C878.966980,60.295490 878.966980,119.591003 878.966980,178.943268 
	C586.449097,178.943268 293.898224,178.943268 1.173675,178.943268 
	C1.173675,119.667030 1.173675,60.333588 1.173675,1.000000 
	C50.092083,1.000000 99.079063,1.000000 148.533417,1.428400 
	C149.367584,5.137233 149.247833,8.572584 150.229950,11.657108 
	C151.344177,15.156610 154.022888,17.466211 158.178253,16.995052 
	C162.167923,16.542685 164.654251,14.225259 164.888763,10.337116 
	C165.074722,7.253829 164.330948,4.114465 164.000000,1.000000 
M731.044250,47.291481 
	C709.759705,53.828888 700.279846,67.263329 702.066650,88.955307 
	C702.895508,99.018341 707.769409,106.359337 717.541382,110.292274 
	C726.706970,113.981148 736.144897,113.601990 745.592834,112.870697 
	C771.077759,110.898079 786.280762,90.693024 781.062500,66.021500 
	C778.773865,55.201111 771.673401,47.978405 760.695618,47.140812 
	C751.144531,46.412075 741.486206,47.089737 731.044250,47.291481 
M695.099670,77.329361 
	C695.057556,74.665497 695.127502,71.994324 694.954163,69.339035 
	C694.164062,57.239769 686.074951,48.405937 673.977844,47.045673 
	C667.225342,46.286385 660.356567,45.870853 653.577698,46.164650 
	C632.473450,47.079304 618.470581,59.234756 615.414124,78.744942 
	C612.807678,95.382492 620.244751,108.460747 635.413025,111.711060 
	C642.923340,113.320381 650.972900,113.273315 658.708252,112.808128 
	C680.287964,111.510376 693.445862,98.706551 695.099670,77.329361 
M188.934875,103.243034 
	C189.913559,99.064255 190.892242,94.885475 192.000412,90.153786 
	C184.129822,90.153786 176.679810,90.047897 169.240143,90.277351 
	C168.220779,90.308792 167.147141,91.920837 166.281647,92.954353 
	C163.965164,95.720551 162.157486,99.087311 159.399384,101.269875 
	C154.824066,104.890427 150.808105,103.193298 150.232605,97.484512 
	C149.727707,92.476089 150.127136,87.376495 150.127136,82.002846 
	C164.113525,82.002846 176.744034,82.043106 189.373581,81.950134 
	C190.893295,81.938957 192.947433,81.702515 193.841278,80.730911 
	C202.962433,70.816292 198.186661,51.598709 185.098358,48.435238 
	C176.225647,46.290688 166.620712,45.745922 157.482010,46.406189 
	C132.477615,48.212742 118.541100,64.486595 119.995621,88.779831 
	C120.594101,98.775543 127.383820,107.819710 136.930893,110.661362 
	C151.554459,115.014015 166.223770,114.030579 180.647125,109.768456 
	C183.661469,108.877708 186.083664,105.983047 188.934875,103.243034 
M379.458313,111.081512 
	C391.570099,107.913872 394.080658,104.429955 394.335419,90.141914 
	C387.848022,90.141914 381.357910,90.295601 374.880646,90.074020 
	C371.855347,89.970535 370.233490,90.788681 368.747772,93.651955 
	C367.198303,96.637962 364.777985,99.470474 362.081482,101.495262 
	C357.682281,104.798630 353.798492,103.074226 353.238495,97.578796 
	C352.726288,92.552734 353.129822,87.433357 353.129822,82.002853 
	C367.051239,82.002853 379.695923,82.042160 392.339691,81.951523 
	C393.865631,81.940590 395.927460,81.729294 396.826202,80.761452 
	C405.968903,70.916077 401.166260,51.595070 388.071686,48.430847 
	C379.187500,46.284039 369.511200,45.520096 360.428650,46.457680 
	C336.677887,48.909462 321.746582,62.470188 322.944244,87.928474 
	C323.454559,98.776505 330.224396,107.835159 340.576141,110.854652 
	C353.204895,114.538322 365.925079,113.770775 379.458313,111.081512 
M210.766449,83.869865 
	C212.231598,93.181702 213.696747,102.493546 215.217224,112.157043 
	C224.598755,112.157043 233.563126,111.969032 242.512527,112.252838 
	C245.923981,112.361023 247.479141,111.033569 248.954086,108.200974 
	C258.778992,89.332390 268.779327,70.555176 278.701416,51.737061 
	C279.358490,50.490841 279.840149,49.152138 280.612549,47.375366 
	C276.681549,47.375366 273.344727,47.664337 270.080444,47.301380 
	C266.103363,46.859161 264.222504,48.498047 262.564392,52.031540 
	C257.200806,63.461491 251.422989,74.697212 245.788864,85.999832 
	C245.125534,87.330521 244.363297,88.611908 242.960464,91.165871 
	C240.759689,75.656029 238.782455,61.721546 236.798965,47.742989 
	C226.052139,47.742989 215.682266,47.742989 204.881882,47.742989 
	C206.823288,59.782558 208.696487,71.399124 210.766449,83.869865 
M848.529236,45.895954 
	C838.578186,45.446793 832.040405,51.409534 825.738647,59.132549 
	C825.014160,56.031937 824.253357,53.999294 824.118042,51.925835 
	C823.883850,48.337364 822.293579,47.115429 818.701050,47.303444 
	C813.225098,47.590019 807.721191,47.464668 802.233093,47.341461 
	C799.666504,47.283840 798.339233,47.982876 797.870850,50.788425 
	C796.942139,56.351772 795.574768,61.841415 794.407959,67.365570 
	C791.294678,82.104591 788.191528,96.845764 785.031433,111.837082 
	C795.527100,111.837082 805.593079,111.837082 815.728943,111.837082 
	C818.834106,97.427933 821.903320,83.313217 824.902283,69.183601 
	C825.697998,65.434700 828.258972,63.946190 831.687683,63.791473 
	C835.380005,63.624866 836.375732,66.482201 836.915588,69.348320 
	C837.579468,72.872871 837.956177,76.451523 838.423157,79.766846 
	C844.098389,79.766846 849.349182,79.766846 854.584839,79.766846 
	C856.420593,71.283913 858.190979,63.174255 859.927124,55.057289 
	C861.287354,48.698078 860.085999,47.055687 853.422913,46.154068 
	C852.107056,45.976006 850.768616,45.963844 848.529236,45.895954 
M61.905102,47.379196 
	C58.663662,46.910198 57.319874,48.193836 56.673504,51.562107 
	C54.326473,63.792675 51.570595,75.944618 48.984379,88.129501 
	C47.317352,95.983665 45.677334,103.843575 43.984722,111.893463 
	C54.580021,111.893463 64.506271,111.893463 74.525909,111.893463 
	C74.757507,111.057083 74.959442,110.445511 75.095383,109.819603 
	C78.021477,96.347359 80.988792,82.883743 83.830421,69.393661 
	C84.671165,65.402382 87.445526,63.281002 90.882782,64.025490 
	C92.891617,64.460587 95.001160,67.417885 95.809486,69.687737 
	C96.938972,72.859406 96.895813,76.448669 97.393776,80.152100 
	C101.951813,80.152100 106.272652,80.373123 110.544907,80.014786 
	C111.795143,79.909927 113.663742,78.342476 113.960762,77.129868 
	C116.014565,68.745003 117.843811,60.298195 119.415916,51.810303 
	C119.633148,50.637493 118.352379,48.360752 117.228493,47.897793 
	C108.826088,44.436600 100.573326,44.890747 93.232872,50.535614 
	C90.307289,52.785404 88.111923,55.984741 84.835861,59.570919 
	C84.009254,56.133514 83.211693,54.119549 83.098778,52.067898 
	C82.883865,48.163406 80.995842,47.075634 77.293373,47.305931 
	C72.485725,47.604984 67.645447,47.379330 61.905102,47.379196 
M309.342010,96.930771 
	C312.891541,80.587486 316.441071,64.244202 320.059326,47.584469 
	C309.519531,47.584469 299.574738,47.584469 289.171692,47.584469 
	C284.648071,68.967598 280.139771,90.278526 275.511597,112.155945 
	C284.734833,112.155945 293.031006,112.155937 301.327148,112.155937 
	C302.802582,112.155937 304.278046,112.155945 306.051971,112.155945 
	C307.128693,107.133057 308.134521,102.440765 309.342010,96.930771 
M307.390991,41.846104 
	C309.968414,41.274174 312.637115,40.958466 315.105103,40.079384 
	C321.072906,37.953705 324.660370,32.055943 323.928925,26.061892 
	C323.246246,20.467554 319.337067,16.881577 312.544830,16.238983 
	C309.806122,15.979885 306.891266,16.279947 304.211609,16.947708 
	C296.604797,18.843315 292.466522,24.376631 293.131134,31.225742 
	C293.747375,37.576374 298.455170,41.307018 307.390991,41.846104 
M596.006836,155.088699 
	C595.907288,155.573639 595.807678,156.058594 595.545593,157.335022 
	C594.905334,155.721390 594.412231,154.782410 594.156555,153.782730 
	C592.882996,148.803131 591.784607,143.775101 590.365173,138.838699 
	C589.972656,137.473343 588.690308,136.363815 587.816223,135.136917 
	C586.938171,136.311127 585.631897,137.363037 585.255493,138.680557 
	C583.559448,144.617157 582.127136,150.629074 580.258240,157.951981 
	C578.739929,150.474899 577.602234,144.303207 576.155640,138.204742 
	C575.848206,136.908691 574.414978,135.879654 573.500427,134.727600 
	C572.996460,135.049683 572.492554,135.371765 571.988647,135.693848 
	C573.758606,144.078613 575.399841,152.495026 577.444824,160.812164 
	C577.733643,161.986450 579.992371,162.676346 581.905762,163.974854 
	C583.899292,156.001205 585.584961,149.258881 587.270691,142.516571 
	C589.376953,147.811096 590.549561,153.121414 592.127869,158.308258 
	C592.656189,160.044373 594.220337,161.465256 595.311035,163.030228 
	C596.478027,161.357742 598.177734,159.837006 598.705994,157.982559 
	C599.975464,153.526062 600.745850,148.922729 601.619629,144.359848 
	C602.188782,141.387878 602.585693,138.382935 603.059814,135.392746 
	C602.384277,135.220551 601.708679,135.048355 601.033081,134.876144 
	C597.469849,140.717606 597.963501,147.882660 596.006836,155.088699 
M393.077423,157.567047 
	C394.751312,159.958038 395.156189,164.156082 400.052704,162.569061 
	C400.052704,154.481339 400.138947,146.661285 399.964478,138.847061 
	C399.936707,137.601883 398.738281,136.382843 398.081085,135.151733 
	C397.481720,136.448547 396.415985,137.727356 396.365143,139.045319 
	C396.164673,144.241577 396.282928,149.450119 396.282928,156.124771 
	C394.971283,154.132584 394.430939,153.397766 393.979370,152.611984 
	C391.080811,147.568604 388.320374,142.439453 385.227142,137.519180 
	C384.513824,136.384537 382.681824,135.953171 381.364594,135.198181 
	C380.936462,136.337906 380.156647,137.471848 380.137787,138.618317 
	C380.022705,145.613068 380.000397,152.612503 380.161224,159.605453 
	C380.187347,160.740921 381.280518,161.851868 381.880432,162.974121 
	C382.492065,161.849319 383.592468,160.741394 383.632019,159.596817 
	C383.818817,154.192078 383.715332,148.777313 383.715332,143.366104 
	C383.986115,143.260956 384.256927,143.155792 384.527710,143.050629 
	C387.249664,147.676086 389.971649,152.301544 393.077423,157.567047 
M282.576691,163.074936 
	C284.208435,163.198730 285.882385,163.620895 287.464874,163.396851 
	C296.317322,162.143524 300.649933,151.226730 296.364899,141.465942 
	C294.486633,137.187515 291.246368,135.090652 286.740417,134.652679 
	C282.323120,134.223358 278.915863,136.104721 276.451782,139.568024 
	C271.188965,146.964981 273.878815,158.299301 282.576691,163.074936 
M303.820312,160.223343 
	C304.453125,161.122818 305.085938,162.022278 305.718719,162.921738 
	C306.154663,162.002747 306.947876,161.091446 306.967834,160.163513 
	C307.086578,154.643768 307.026520,149.120163 307.026520,143.597855 
	C307.351044,143.557007 307.675568,143.516159 308.000122,143.475327 
	C310.229370,149.119247 312.458588,154.763153 314.687836,160.407074 
	C315.197632,160.372772 315.707428,160.338470 316.217194,160.304169 
	C318.491608,154.414902 320.765991,148.525635 323.040375,142.636368 
	C323.826355,148.713760 323.761078,154.600052 323.899963,160.481537 
	C323.919708,161.318863 324.929718,162.132812 325.481384,162.957550 
	C325.995331,162.106842 326.944153,161.262024 326.955780,160.404526 
	C327.068176,152.101639 327.023254,143.796600 327.023254,135.277664 
	C320.337219,134.701675 321.586670,140.287460 320.086792,143.318359 
	C318.308105,146.912643 317.131500,150.804855 315.373474,155.406876 
	C313.093994,149.133362 311.129181,143.689911 309.136047,138.256866 
	C308.264984,135.882523 307.082275,134.052231 303.816833,135.920517 
	C303.816833,143.649292 303.816833,151.462036 303.820312,160.223343 
M689.207336,161.950760 
	C691.388062,163.839325 692.781982,163.577057 692.884460,160.476791 
	C692.980774,157.565018 692.905090,154.647552 692.905090,151.732590 
	C693.463867,151.370071 694.022644,151.007568 694.581421,150.645050 
	C696.278503,151.956863 698.265686,153.029251 699.597046,154.642807 
	C701.159241,156.536179 701.952759,159.054337 703.466431,161.000732 
	C704.347229,162.133240 705.986267,162.676071 707.284119,163.484222 
	C707.577454,163.126450 707.870789,162.768661 708.164124,162.410889 
	C706.064636,158.601349 703.965088,154.791824 701.805542,150.873367 
	C706.595398,148.900986 708.602478,145.649506 707.609192,141.173294 
	C706.562561,136.456589 702.671997,135.298141 698.443909,135.116196 
	C695.505615,134.989746 692.557495,135.091858 689.105286,135.091858 
	C689.105286,144.155350 689.105286,152.599579 689.207336,161.950760 
M489.933838,159.697952 
	C488.303711,156.895935 486.673584,154.093903 484.985565,151.192352 
	C489.281830,148.949005 491.963379,145.722488 490.528046,141.399384 
	C489.736053,139.013992 487.042023,136.211044 484.699280,135.627121 
	C480.860138,134.670227 476.608551,135.368134 472.097656,135.368134 
	C472.097656,143.275131 472.097229,150.719650 472.098267,158.164169 
	C472.098389,158.994705 471.798615,160.024628 472.178711,160.612350 
	C472.872009,161.684296 473.970520,162.494186 474.899994,163.413422 
	C475.342041,163.075241 475.784058,162.737061 476.226074,162.398880 
	C476.226074,158.835541 476.226074,155.272217 476.226074,151.708878 
	C476.691620,151.339050 477.157166,150.969223 477.622681,150.599380 
	C479.294159,151.892975 481.292480,152.930191 482.557373,154.542709 
	C484.277435,156.735519 485.267731,159.492920 486.928894,161.744080 
	C487.510162,162.531769 489.151184,162.537445 490.308258,162.900253 
	C490.290985,162.059692 490.273712,161.219147 489.933838,159.697952 
M448.688690,137.949478 
	C451.356506,138.549637 454.024292,139.149796 457.832947,140.006607 
	C454.786072,134.616760 450.786713,133.877548 447.074036,135.149933 
	C444.526154,136.023117 441.734741,138.570587 440.748169,141.045670 
	C439.331879,144.598801 442.260651,147.184113 445.252136,148.933914 
	C447.514526,150.257217 450.190460,150.982681 452.205994,152.576584 
	C453.350739,153.481903 454.344025,155.868225 453.934204,157.096863 
	C453.501526,158.394119 451.307648,159.915161 449.904449,159.894440 
	C447.584076,159.860214 445.302490,158.578583 442.959595,158.006760 
	C442.025391,157.778748 440.971680,158.040497 439.972351,158.079285 
	C440.267395,159.055511 440.355530,160.735840 440.891205,160.893250 
	C444.273132,161.887115 447.768890,163.206085 451.198792,163.130768 
	C454.880341,163.049911 457.505951,160.558762 458.124847,156.522537 
	C458.758392,152.390839 456.682892,149.903046 453.243378,148.262329 
	C451.304352,147.337402 449.062225,146.906693 447.346771,145.699142 
	C445.990784,144.744644 444.413757,142.922043 444.452972,141.527664 
	C444.486603,140.331497 446.671204,139.195862 448.688690,137.949478 
M613.243713,159.785049 
	C610.923767,159.788895 608.958374,155.365280 605.410339,159.993668 
	C608.900269,161.354950 611.765259,163.055206 614.820862,163.530731 
	C619.666321,164.284836 624.019043,161.296249 624.902710,157.306488 
	C626.031921,152.207779 622.930481,149.668915 618.908691,147.756241 
	C616.972412,146.835358 614.797852,146.216293 613.172302,144.911148 
	C612.086487,144.039337 611.023621,141.996704 611.331787,140.849014 
	C611.646423,139.677658 613.621521,138.257339 614.919800,138.205582 
	C616.939880,138.125031 618.989136,139.172546 621.054382,139.607437 
	C621.744568,139.752777 622.800293,139.743637 623.178528,139.333923 
	C623.539673,138.942749 623.397400,137.345123 623.201355,137.291946 
	C619.960876,136.412750 616.514587,134.735260 613.455811,135.253098 
	C611.157104,135.642258 608.526062,138.551910 607.511536,140.958588 
	C606.098511,144.310364 608.599548,146.896667 611.540283,148.571335 
	C613.117065,149.469238 614.891479,150.015915 616.488159,150.883865 
	C618.915649,152.203430 622.133484,153.277451 621.021057,156.961273 
	C619.988770,160.379745 616.972107,160.380066 613.243713,159.785049 
M180.321686,143.826004 
	C179.817261,138.835663 182.573975,136.900711 187.636292,138.581558 
	C189.080490,139.061066 190.636307,139.204376 192.140945,139.501846 
	C192.260330,139.012360 192.379715,138.522873 192.499100,138.033386 
	C191.767563,137.401764 191.099899,136.670151 190.293839,136.155151 
	C185.909958,133.354248 179.316681,134.554657 176.948563,138.537140 
	C174.436386,142.761917 176.133148,146.369125 182.017624,149.326431 
	C183.799591,150.222000 185.866516,150.817993 187.267227,152.125214 
	C188.526138,153.300095 189.993774,155.519485 189.642624,156.807327 
	C189.264755,158.193176 186.906662,159.859634 185.360046,159.914154 
	C183.033646,159.996170 180.688126,158.645752 178.296906,158.181808 
	C177.220901,157.973053 176.014862,158.434448 174.867828,158.591751 
	C174.863998,159.122650 174.860153,159.653549 174.856323,160.184448 
	C176.909134,161.187714 178.877655,162.456161 181.031723,163.140854 
	C186.016830,164.725403 191.682220,162.363876 193.368362,158.263016 
	C195.115280,154.014343 193.302338,150.853012 187.472275,147.888855 
	C185.253479,146.760788 183.072861,145.557602 180.321686,143.826004 
M370.022339,156.159088 
	C371.898590,158.293823 370.071136,163.794449 376.109406,162.659851 
	C373.279510,154.088257 370.622314,145.763336 367.700867,137.532181 
	C367.324921,136.473038 365.647278,135.459900 364.439697,135.269760 
	C363.728699,135.157837 362.319000,136.554611 361.969360,137.537994 
	C359.039124,145.779831 356.281830,154.083160 353.472412,162.367981 
	C355.320618,162.606384 356.769012,162.139175 357.522064,161.145203 
	C359.015991,159.173279 359.667755,155.821915 361.511871,155.045166 
	C363.798004,154.082260 366.940643,155.152847 370.022339,156.159088 
M555.767090,163.038483 
	C559.422485,163.035049 563.080688,163.105576 566.730957,162.967285 
	C567.482056,162.938828 568.203613,162.130768 568.938782,161.682068 
	C568.160156,161.111282 567.405762,160.091309 566.598694,160.047806 
	C563.180969,159.863647 559.747498,159.969711 556.272095,159.969711 
	C556.272095,156.377823 556.272095,153.454895 556.272095,150.655731 
	C559.549927,148.726288 564.049805,151.917755 567.807495,146.981445 
	C563.055298,146.981445 559.680359,146.981445 556.456604,146.981445 
	C556.456604,143.740433 556.456604,141.203827 556.456604,138.109314 
	C560.742615,138.109314 564.614319,138.109314 568.745483,138.109314 
	C567.034729,134.798645 559.381592,134.013245 552.318542,135.992508 
	C552.318542,144.031647 552.237000,152.157822 552.429382,160.277481 
	C552.451538,161.214478 553.997620,162.115387 555.767090,163.038483 
M659.150024,136.937332 
	C658.514648,136.370865 657.879272,135.804398 657.243896,135.237915 
	C656.773804,135.977676 655.939758,136.697617 655.898254,137.460693 
	C655.738892,140.389923 655.833679,143.332977 655.833679,146.530853 
	C651.244751,146.530853 647.347839,146.530853 642.884399,146.530853 
	C642.884399,143.532608 643.051575,140.740799 642.794861,137.988525 
	C642.703552,137.009140 641.583191,136.125748 640.932556,135.198517 
	C640.326599,136.170700 639.215393,137.132599 639.195374,138.116699 
	C639.046631,145.428894 639.048889,152.746780 639.192322,160.059174 
	C639.211548,161.038025 640.287537,161.996155 640.874084,162.963882 
	C641.544861,161.913986 642.699829,160.905594 642.794128,159.806259 
	C643.058838,156.718536 642.886475,153.593353 642.886475,150.410477 
	C647.467773,150.410477 651.493286,150.410477 655.818665,150.410477 
	C655.818665,153.761963 655.649963,156.749130 655.904785,159.699738 
	C656.001709,160.821915 657.071960,161.860016 657.698608,162.936417 
	C658.192749,161.892578 659.097107,160.855713 659.114929,159.803772 
	C659.239258,152.490692 659.179626,145.174484 659.150024,136.937332 
M502.486877,138.423553 
	C505.314484,138.391129 508.149506,138.460098 510.964417,138.254044 
	C511.657379,138.203308 512.284790,137.256454 512.942322,136.721573 
	C512.270630,136.189163 511.612122,135.216217 510.925049,135.195602 
	C506.345764,135.058258 501.760345,135.124359 497.276733,135.124359 
	C497.276733,144.833344 497.276733,153.746475 497.276733,163.017242 
	C502.204498,163.017242 506.834503,163.082321 511.458740,162.948578 
	C512.169434,162.928009 512.853638,161.991959 513.550110,161.479279 
	C512.839539,160.980164 512.146667,160.082367 511.415375,160.049881 
	C507.975464,159.897141 504.525024,159.981918 500.908112,159.981918 
	C500.908112,156.444473 500.908112,153.520416 500.908112,150.027084 
	C503.743317,150.027084 506.368591,150.124573 508.978485,149.966949 
	C509.749786,149.920380 510.477600,149.153854 511.225342,148.717239 
	C510.457855,148.135498 509.726501,147.119568 508.916199,147.052170 
	C506.322784,146.836380 503.700134,146.972031 500.324127,146.972031 
	C500.793701,143.758148 501.162872,141.231277 502.486877,138.423553 
M719.659790,146.944565 
	C718.789917,144.390930 717.919983,141.837296 716.727173,138.335815 
	C721.511719,138.335815 724.635925,138.423798 727.748535,138.272141 
	C728.499390,138.235565 729.211609,137.405792 729.941589,136.940765 
	C729.177307,136.333893 728.431946,135.232269 727.645508,135.202072 
	C723.222229,135.032166 718.789001,135.120132 714.368896,135.120132 
	C714.368896,144.793640 714.368896,153.820786 714.368896,162.812180 
	C727.348450,163.602570 729.059814,163.373169 730.800354,159.962921 
	C726.260742,159.962921 722.091858,159.962921 718.006470,159.962921 
	C718.006470,156.265381 718.006470,153.349518 718.006470,150.223679 
	C719.124084,150.146103 719.942322,150.158676 720.734497,150.021378 
	C723.139526,149.604568 725.534485,149.129791 727.933411,148.677597 
	C725.488037,148.106934 723.042603,147.536255 719.659790,146.944565 
M525.481812,155.726547 
	C523.730164,149.844818 522.088806,143.926163 520.141846,138.109802 
	C519.706360,136.808853 518.199097,135.866638 517.185303,134.759262 
	C516.708008,135.127502 516.230652,135.495743 515.753357,135.863968 
	C518.464539,144.346146 521.128906,152.844040 523.965393,161.284119 
	C524.225098,162.057007 525.665100,163.009659 526.415833,162.901184 
	C527.448975,162.751923 528.866272,161.867737 529.213989,160.954041 
	C530.747681,156.923920 531.985962,152.779434 533.274963,148.658752 
	C534.629639,144.327957 535.920227,139.977081 537.238831,135.634979 
	C536.653320,135.315536 536.067749,134.996109 535.482239,134.676666 
	C534.641296,135.837357 533.437866,136.881729 533.021606,138.178726 
	C531.142883,144.032791 529.514648,149.966995 527.682434,155.836853 
	C527.571899,156.190872 526.476562,156.237503 525.481812,155.726547 
M260.399048,134.944229 
	C253.432236,137.784210 250.689743,142.172531 250.962463,150.044052 
	C251.197021,156.814987 254.181702,161.246750 259.764984,163.114487 
	C264.876648,164.824463 269.489990,162.886215 270.794067,158.094421 
	C269.744751,158.284286 268.796234,158.255310 268.042145,158.624023 
	C261.805908,161.673218 256.813507,159.423737 255.158096,152.751434 
	C252.746124,143.029526 258.424103,137.343613 268.106659,139.655045 
	C268.840942,139.830353 269.845917,138.871887 270.725067,138.440445 
	C270.724762,137.863007 270.724426,137.285568 270.724121,136.708130 
	C267.526611,136.072601 264.329102,135.437057 260.399048,134.944229 
M199.134674,161.159454 
	C199.590012,161.747391 200.030823,162.832474 200.502899,162.846252 
	C205.148407,162.981827 209.800964,163.001373 214.445892,162.863983 
	C214.988632,162.847931 215.497498,161.686661 216.879410,160.026093 
	C211.521881,160.026093 207.345123,160.026093 203.155731,160.026093 
	C203.155731,156.359711 203.155731,153.435944 203.155731,150.011353 
	C206.025040,150.011353 208.650314,150.122894 211.253296,149.931396 
	C211.888855,149.884644 212.451294,148.844177 213.047363,148.260590 
	C212.455353,147.837021 211.880753,147.079773 211.268326,147.047836 
	C208.656647,146.911652 206.033798,146.989914 203.319885,146.989914 
	C203.319885,143.807541 203.319885,141.137161 203.319885,137.962524 
	C207.474594,137.962524 211.207718,137.962524 215.185150,137.962524 
	C213.586960,134.810181 206.404984,134.076950 199.511856,135.870926 
	C199.402145,136.176636 199.198135,136.481857 199.196487,136.788147 
	C199.154602,144.598083 199.133911,152.408127 199.134674,161.159454 
M679.159241,150.011078 
	C679.746094,149.423645 680.332886,148.836212 680.919739,148.248779 
	C680.162598,147.825974 679.424561,147.085571 678.644714,147.038559 
	C676.078430,146.883820 673.496948,146.980331 670.890503,146.980331 
	C670.890503,143.716415 670.890503,141.258118 670.890503,138.493637 
	C675.039062,138.261688 678.996765,138.040421 683.468262,137.790421 
	C681.003845,134.815491 675.678284,134.315628 667.157532,135.664673 
	C667.157532,144.635590 667.157532,153.646133 667.157532,162.616257 
	C678.106140,163.851791 681.750183,163.377640 683.251770,159.904938 
	C678.938782,159.904938 674.926270,159.904938 671.010986,159.904938 
	C671.010986,156.245712 671.010986,153.332535 671.010986,150.026443 
	C673.644653,150.026443 675.942505,150.026443 679.159241,150.011078 
M229.733414,138.164581 
	C232.403687,138.164581 235.073959,138.164581 238.681656,138.164581 
	C235.672028,134.842026 228.773865,134.292511 222.114380,135.847336 
	C222.114380,144.735519 222.114380,153.639908 222.114380,162.501221 
	C232.043686,163.906403 236.575394,163.386887 238.325058,160.009033 
	C233.811890,160.009033 229.629349,160.009033 225.435211,160.009033 
	C225.435211,156.333878 225.435211,153.412750 225.435211,150.637604 
	C228.771347,148.718155 233.260254,151.865387 235.630844,146.974701 
	C232.252930,146.974701 228.875000,146.974701 224.761063,146.974701 
	C226.490067,143.545731 222.005524,138.561722 229.733414,138.164581 
M428.361755,150.012253 
	C429.848755,149.863358 431.335785,149.714462 432.822784,149.565552 
	C432.851837,148.852249 432.880859,148.138931 432.909912,147.425613 
	C429.485138,147.191803 426.060333,146.957977 422.479309,146.713501 
	C422.479309,143.890488 422.479309,141.332413 422.479309,138.442596 
	C426.798126,138.213638 430.835236,137.999619 434.872345,137.785599 
	C434.851501,137.158966 434.830688,136.532333 434.809845,135.905701 
	C429.643585,135.905701 424.477295,135.905701 419.073914,135.905701 
	C419.073914,144.664001 419.073914,153.567078 419.073914,162.674927 
	C424.516846,162.674927 429.718964,162.674927 434.921082,162.674927 
	C435.026672,162.120590 435.132233,161.566254 435.237823,161.011917 
	C431.461792,158.600510 426.497223,161.083618 422.575745,159.522736 
	C422.575745,156.292664 422.575745,153.260330 422.575745,150.012314 
	C424.476685,150.012314 425.966644,150.012314 428.361755,150.012253 
M338.632568,135.124527 
	C337.376465,135.784805 335.050934,136.409897 335.027893,137.110733 
	C334.765686,145.083023 334.816132,153.067413 334.924408,161.046631 
	C334.933075,161.687408 335.987793,162.313980 336.556396,162.947159 
	C337.088013,162.275955 338.033447,161.631226 338.078339,160.928909 
	C338.255890,158.151428 338.151245,155.355911 338.151245,152.610733 
	C341.697632,152.046921 344.846497,151.855621 347.804321,151.002289 
	C352.054443,149.776123 353.813507,146.464157 353.363556,142.208618 
	C352.915009,137.966812 350.068909,135.863388 346.028961,135.374512 
	C343.893494,135.116104 341.716980,135.196564 338.632568,135.124527 
M541.071289,144.558609 
	C541.075256,149.889999 541.004578,155.223572 541.160950,160.550491 
	C541.185303,161.379395 542.245728,162.177872 542.827026,162.990448 
	C543.521240,162.293182 544.805969,161.606781 544.819031,160.896973 
	C544.963135,153.069229 544.964355,145.236847 544.822205,137.409027 
	C544.808472,136.648666 543.577698,135.910400 542.911865,135.161896 
	C542.303101,135.969116 541.287720,136.720749 541.168213,137.594879 
	C540.899780,139.558044 541.076111,141.582031 541.071289,144.558609 
M411.035034,136.975311 
	C410.270782,136.365967 409.506561,135.756622 408.742310,135.147278 
	C408.253754,136.047729 407.355103,136.941895 407.341217,137.849609 
	C407.227173,145.305008 407.187500,152.765228 407.378204,160.217514 
	C407.405914,161.300903 408.774597,162.349976 409.522736,163.414932 
	C410.033722,163.158371 410.544708,162.901810 411.055695,162.645248 
	C411.055695,154.391098 411.055695,146.136963 411.035034,136.975311 
z"/>
<path fill="#FEFEFF" opacity="1.000000" stroke="none" 
	d="
M587.000000,1.000001 
	C593.354431,1.000000 599.708801,1.000000 606.564697,1.351972 
	C608.704956,4.745555 610.343689,7.787166 611.519287,10.897118 
	C603.821106,10.965459 596.585999,10.965459 589.251526,10.965459 
	C588.724609,12.830258 588.278809,14.407810 587.456787,15.980565 
	C586.161926,13.476874 584.539246,10.982463 584.523315,8.477829 
	C584.507507,5.990576 586.108215,3.493032 587.000000,1.000001 
z"/>
<path fill="#F1F1F1" opacity="1.000000" stroke="none" 
	d="
M163.533875,1.000000 
	C164.330948,4.114465 165.074722,7.253829 164.888763,10.337116 
	C164.654251,14.225259 162.167923,16.542685 158.178253,16.995052 
	C154.022888,17.466211 151.344177,15.156610 150.229950,11.657108 
	C149.247833,8.572584 149.367584,5.137233 149.000397,1.428400 
	C153.689255,1.000000 158.378510,1.000000 163.533875,1.000000 
z"/>
<path fill="#EFEEF1" opacity="1.000000" stroke="none" 
	d="
M586.562500,1.000001 
	C586.108215,3.493032 584.507507,5.990576 584.523315,8.477829 
	C584.539246,10.982463 586.161926,13.476874 587.483704,16.364967 
	C587.148315,19.880007 586.409729,23.005848 585.671143,26.131687 
	C578.614197,21.094107 576.657898,12.830177 579.954834,1.396522 
	C582.041687,1.000000 584.083313,1.000000 586.562500,1.000001 
z"/>
<path fill="#F1F1F1" opacity="1.000000" stroke="none" 
	d="
M630.562500,1.000002 
	C631.326294,2.936052 631.365662,4.978518 632.036255,6.786883 
	C633.630859,11.086694 632.828491,14.119833 627.539490,15.793333 
	C626.365540,11.131544 625.190674,6.466118 624.007935,1.400346 
	C626.041687,1.000000 628.083313,1.000000 630.562500,1.000002 
z"/>
<path fill="#F1F1F1" opacity="1.000000" stroke="none" 
	d="
M180.535355,1.000000 
	C177.393768,4.153520 173.787521,7.307039 169.047958,11.451605 
	C168.131058,7.130427 167.566727,4.470869 167.001190,1.405656 
	C171.356903,1.000000 175.713806,1.000000 180.535355,1.000000 
z"/>
<path fill="#F1F1F1" opacity="1.000000" stroke="none" 
	d="
M611.982422,10.828777 
	C610.343689,7.787166 608.704956,4.745555 607.033081,1.351972 
	C609.370544,1.000000 611.741150,1.000000 614.555847,0.999998 
	C616.002625,4.020643 617.005188,7.041288 617.586182,10.510569 
	C615.437195,10.915729 613.709778,10.872254 611.982422,10.828777 
z"/>
<path fill="#6A4ADB" opacity="1.000000" stroke="none" 
	d="
M516.090820,79.008789 
	C514.621826,82.081284 513.152832,85.153778 511.354553,88.834549 
	C509.353607,93.296204 507.681915,97.149582 506.010193,101.002960 
	C505.901550,101.129204 505.725464,101.240555 505.693817,101.383804 
	C503.423431,111.666405 496.351624,113.302444 487.186646,112.275307 
	C481.439972,111.631248 475.562408,112.155373 469.057098,112.155373 
	C467.277069,102.025803 465.513977,91.992798 463.563293,80.892159 
	C462.367889,82.669991 461.569000,83.583015 461.073730,84.638519 
	C457.329590,92.617836 453.578918,100.595551 449.982910,108.641998 
	C448.927124,111.004448 447.755402,112.305618 444.854370,112.229530 
	C436.697601,112.015594 428.530121,112.069000 420.369965,112.203720 
	C417.738525,112.247162 416.491302,111.497368 416.088440,108.733574 
	C413.186096,88.821136 410.151978,68.927917 407.176697,49.026058 
	C407.131561,48.724056 407.304138,48.389515 407.451752,47.725166 
	C417.764771,47.725166 428.150513,47.725166 438.864380,47.725166 
	C440.581726,61.845516 442.286072,75.858971 444.178680,91.420425 
	C446.825684,85.079521 448.940094,80.048805 451.027222,75.006798 
	C454.334259,67.017868 457.489563,58.961388 461.032623,51.078934 
	C461.737274,49.511192 463.855988,47.611034 465.393005,47.546761 
	C473.693848,47.199661 482.016815,47.382339 491.063080,47.382339 
	C492.769257,61.708076 494.451843,75.835617 496.318787,91.510925 
	C500.569977,81.132950 504.298615,72.030724 508.324249,62.317528 
	C510.418427,57.139801 512.215576,52.573036 514.012756,48.006271 
	C514.012756,48.006271 513.999939,48.000832 514.463135,47.913078 
	C519.971130,47.878227 525.015991,47.931137 529.979492,48.337757 
	C526.574036,56.088047 523.249939,63.484623 519.670166,71.112480 
	C518.306580,73.898773 517.198730,76.453781 516.090820,79.008789 
z"/>
<path fill="#6949DA" opacity="1.000000" stroke="none" 
	d="
M611.519287,10.897120 
	C613.709778,10.872254 615.437195,10.915729 617.591919,10.891474 
	C618.302612,12.613630 619.126770,14.514488 618.785889,16.176302 
	C615.213928,33.586922 611.466431,50.961636 607.744812,68.341408 
	C604.892883,81.659691 601.860229,94.942001 599.244934,108.306244 
	C598.609558,111.552849 597.311340,112.337418 594.322449,112.206398 
	C589.671082,112.002510 584.980835,111.862762 580.350281,112.234032 
	C575.703918,112.606560 572.612976,111.608192 572.214966,106.352951 
	C572.132141,105.259148 571.538330,104.204018 570.985962,102.549980 
	C568.846436,104.402130 567.108826,106.044861 565.231018,107.507439 
	C557.895203,113.221100 549.455261,114.484489 540.691406,112.542000 
	C531.299866,110.460388 526.757202,102.598412 527.395020,90.840500 
	C527.539124,88.183929 527.810669,85.534279 528.142822,82.099312 
	C528.537537,79.554649 528.813049,77.792114 529.316284,75.745270 
	C532.724609,68.690025 535.905273,61.919090 539.382935,54.999088 
	C541.484131,53.250828 543.288269,51.651634 545.092468,50.052437 
	C545.970215,49.580273 546.847900,49.108112 548.244507,48.352188 
	C550.193848,47.470264 551.624268,46.872105 553.054749,46.273941 
	C559.010254,46.853878 564.965698,47.433823 571.489624,48.373314 
	C574.340576,51.372993 576.623108,54.013123 579.404053,57.229744 
	C581.016602,48.864159 582.543762,40.941513 584.070862,33.018867 
	C584.568054,30.988039 585.065247,28.957209 585.616821,26.529034 
	C586.409729,23.005848 587.148315,19.880007 587.859985,16.369766 
	C588.278809,14.407810 588.724609,12.830258 589.251526,10.965459 
	C596.585999,10.965459 603.821106,10.965459 611.519287,10.897120 
M572.076477,90.397758 
	C573.564026,83.586342 574.851562,76.722733 576.610901,69.982262 
	C577.741211,65.651756 576.521606,62.645103 572.543030,61.140530 
	C568.491333,59.608307 565.341431,61.806526 564.278015,65.449562 
	C561.834534,73.820213 559.708618,82.319557 558.168945,90.895065 
	C557.735474,93.309517 559.780884,96.169014 560.689270,98.824379 
	C563.757141,97.579536 566.947083,96.557152 569.829956,94.975197 
	C570.911133,94.381874 571.278442,92.487701 572.076477,90.397758 
z"/>
<path fill="#6A49DA" opacity="1.000000" stroke="none" 
	d="
M731.459717,47.218697 
	C741.486206,47.089737 751.144531,46.412075 760.695618,47.140812 
	C771.673401,47.978405 778.773865,55.201111 781.062500,66.021500 
	C786.280762,90.693024 771.077759,110.898079 745.592834,112.870697 
	C736.144897,113.601990 726.706970,113.981148 717.541382,110.292274 
	C707.769409,106.359337 702.895508,99.018341 702.066650,88.955307 
	C700.279846,67.263329 709.759705,53.828888 731.459717,47.218697 
M751.057251,61.000736 
	C749.515625,55.401897 745.874878,54.339371 741.816284,58.364552 
	C740.882019,59.291039 740.046753,60.381626 739.407410,61.531029 
	C733.223938,72.647369 731.408997,84.724350 732.212891,97.200981 
	C732.341858,99.202484 734.372559,102.207428 736.086426,102.671387 
	C737.882141,103.157486 741.003601,101.696732 742.381226,100.089088 
	C744.475281,97.645363 746.372620,94.486229 746.931519,91.375473 
	C748.685059,81.615524 749.774109,71.736168 751.057251,61.000736 
z"/>
<path fill="#6949DA" opacity="1.000000" stroke="none" 
	d="
M695.085938,77.795525 
	C693.445862,98.706551 680.287964,111.510376 658.708252,112.808128 
	C650.972900,113.273315 642.923340,113.320381 635.413025,111.711060 
	C620.244751,108.460747 612.807678,95.382492 615.414124,78.744942 
	C618.470581,59.234756 632.473450,47.079304 653.577698,46.164650 
	C660.356567,45.870853 667.225342,46.286385 673.977844,47.045673 
	C686.074951,48.405937 694.164062,57.239769 694.954163,69.339035 
	C695.127502,71.994324 695.057556,74.665497 695.085938,77.795525 
M650.530457,103.097717 
	C652.470093,102.002480 655.187256,101.393562 656.225159,99.734291 
	C663.843323,87.555710 665.324341,73.953194 664.197998,60.012608 
	C663.876343,56.031414 660.696899,54.841122 657.233887,56.912693 
	C655.604248,57.887520 654.098816,59.444847 653.129456,61.087757 
	C646.760437,71.882332 644.982239,83.821426 645.460205,96.069977 
	C645.552734,98.439941 648.247253,100.708374 650.530457,103.097717 
z"/>
<path fill="#6A49DA" opacity="1.000000" stroke="none" 
	d="
M188.856812,103.627441 
	C186.083664,105.983047 183.661469,108.877708 180.647125,109.768456 
	C166.223770,114.030579 151.554459,115.014015 136.930893,110.661362 
	C127.383820,107.819710 120.594101,98.775543 119.995621,88.779831 
	C118.541100,64.486595 132.477615,48.212742 157.482010,46.406189 
	C166.620712,45.745922 176.225647,46.290688 185.098358,48.435238 
	C198.186661,51.598709 202.962433,70.816292 193.841278,80.730911 
	C192.947433,81.702515 190.893295,81.938957 189.373581,81.950134 
	C176.744034,82.043106 164.113525,82.002846 150.127136,82.002846 
	C150.127136,87.376495 149.727707,92.476089 150.232605,97.484512 
	C150.808105,103.193298 154.824066,104.890427 159.399384,101.269875 
	C162.157486,99.087311 163.965164,95.720551 166.281647,92.954353 
	C167.147141,91.920837 168.220779,90.308792 169.240143,90.277351 
	C176.679810,90.047897 184.129822,90.153786 192.000412,90.153786 
	C190.892242,94.885475 189.913559,99.064255 188.856812,103.627441 
M167.137573,75.000610 
	C168.075211,74.344536 169.700653,73.803146 169.832443,73.012711 
	C170.430298,69.427094 171.051880,65.734779 170.758698,62.155087 
	C170.597534,60.187313 169.029175,57.421963 167.384415,56.746086 
	C165.750137,56.074520 162.767853,56.983597 161.174393,58.224140 
	C155.927322,62.309132 154.255310,68.374474 152.671906,75.003815 
	C157.592148,75.003815 161.901001,75.003815 167.137573,75.000610 
z"/>
<path fill="#6A49DA" opacity="1.000000" stroke="none" 
	d="
M379.048218,111.146561 
	C365.925079,113.770775 353.204895,114.538322 340.576141,110.854652 
	C330.224396,107.835159 323.454559,98.776505 322.944244,87.928474 
	C321.746582,62.470188 336.677887,48.909462 360.428650,46.457680 
	C369.511200,45.520096 379.187500,46.284039 388.071686,48.430847 
	C401.166260,51.595070 405.968903,70.916077 396.826202,80.761452 
	C395.927460,81.729294 393.865631,81.940590 392.339691,81.951523 
	C379.695923,82.042160 367.051239,82.002853 353.129822,82.002853 
	C353.129822,87.433357 352.726288,92.552734 353.238495,97.578796 
	C353.798492,103.074226 357.682281,104.798630 362.081482,101.495262 
	C364.777985,99.470474 367.198303,96.637962 368.747772,93.651955 
	C370.233490,90.788681 371.855347,89.970535 374.880646,90.074020 
	C381.357910,90.295601 387.848022,90.141914 394.335419,90.141914 
	C394.080658,104.429955 391.570099,107.913872 379.048218,111.146561 
M373.924438,62.041515 
	C372.043060,55.369064 368.178436,54.136967 363.269135,58.883259 
	C358.849121,63.156494 356.994446,68.695267 355.856201,74.639252 
	C361.837341,74.639252 367.255554,74.639252 372.929443,74.639252 
	C373.297272,70.502701 373.635101,66.703476 373.924438,62.041515 
z"/>
<path fill="#6B4ADB" opacity="1.000000" stroke="none" 
	d="
M210.668060,83.442780 
	C208.696487,71.399124 206.823288,59.782558 204.881882,47.742989 
	C215.682266,47.742989 226.052139,47.742989 236.798965,47.742989 
	C238.782455,61.721546 240.759689,75.656029 242.960464,91.165871 
	C244.363297,88.611908 245.125534,87.330521 245.788864,85.999832 
	C251.422989,74.697212 257.200806,63.461491 262.564392,52.031540 
	C264.222504,48.498047 266.103363,46.859161 270.080444,47.301380 
	C273.344727,47.664337 276.681549,47.375366 280.612549,47.375366 
	C279.840149,49.152138 279.358490,50.490841 278.701416,51.737061 
	C268.779327,70.555176 258.778992,89.332390 248.954086,108.200974 
	C247.479141,111.033569 245.923981,112.361023 242.512527,112.252838 
	C233.563126,111.969032 224.598755,112.157043 215.217224,112.157043 
	C213.696747,102.493546 212.231598,93.181702 210.668060,83.442780 
z"/>
<path fill="#6A4ADB" opacity="1.000000" stroke="none" 
	d="
M848.984924,45.885567 
	C850.768616,45.963844 852.107056,45.976006 853.422913,46.154068 
	C860.085999,47.055687 861.287354,48.698078 859.927124,55.057289 
	C858.190979,63.174255 856.420593,71.283913 854.584839,79.766846 
	C849.349182,79.766846 844.098389,79.766846 838.423157,79.766846 
	C837.956177,76.451523 837.579468,72.872871 836.915588,69.348320 
	C836.375732,66.482201 835.380005,63.624866 831.687683,63.791473 
	C828.258972,63.946190 825.697998,65.434700 824.902283,69.183601 
	C821.903320,83.313217 818.834106,97.427933 815.728943,111.837082 
	C805.593079,111.837082 795.527100,111.837082 785.031433,111.837082 
	C788.191528,96.845764 791.294678,82.104591 794.407959,67.365570 
	C795.574768,61.841415 796.942139,56.351772 797.870850,50.788425 
	C798.339233,47.982876 799.666504,47.283840 802.233093,47.341461 
	C807.721191,47.464668 813.225098,47.590019 818.701050,47.303444 
	C822.293579,47.115429 823.883850,48.337364 824.118042,51.925835 
	C824.253357,53.999294 825.014160,56.031937 825.738647,59.132549 
	C832.040405,51.409534 838.578186,45.446793 848.984924,45.885567 
z"/>
<path fill="#6A4ADB" opacity="1.000000" stroke="none" 
	d="
M62.362160,47.379360 
	C67.645447,47.379330 72.485725,47.604984 77.293373,47.305931 
	C80.995842,47.075634 82.883865,48.163406 83.098778,52.067898 
	C83.211693,54.119549 84.009254,56.133514 84.835861,59.570919 
	C88.111923,55.984741 90.307289,52.785404 93.232872,50.535614 
	C100.573326,44.890747 108.826088,44.436600 117.228493,47.897793 
	C118.352379,48.360752 119.633148,50.637493 119.415916,51.810303 
	C117.843811,60.298195 116.014565,68.745003 113.960762,77.129868 
	C113.663742,78.342476 111.795143,79.909927 110.544907,80.014786 
	C106.272652,80.373123 101.951813,80.152100 97.393776,80.152100 
	C96.895813,76.448669 96.938972,72.859406 95.809486,69.687737 
	C95.001160,67.417885 92.891617,64.460587 90.882782,64.025490 
	C87.445526,63.281002 84.671165,65.402382 83.830421,69.393661 
	C80.988792,82.883743 78.021477,96.347359 75.095383,109.819603 
	C74.959442,110.445511 74.757507,111.057083 74.525909,111.893463 
	C64.506271,111.893463 54.580021,111.893463 43.984722,111.893463 
	C45.677334,103.843575 47.317352,95.983665 48.984379,88.129501 
	C51.570595,75.944618 54.326473,63.792675 56.673504,51.562107 
	C57.319874,48.193836 58.663662,46.910198 62.362160,47.379360 
z"/>
<path fill="#6A4ADB" opacity="1.000000" stroke="none" 
	d="
M309.241211,97.339615 
	C308.134521,102.440765 307.128693,107.133057 306.051971,112.155945 
	C304.278046,112.155945 302.802582,112.155937 301.327148,112.155937 
	C293.031006,112.155937 284.734833,112.155945 275.511597,112.155945 
	C280.139771,90.278526 284.648071,68.967598 289.171692,47.584469 
	C299.574738,47.584469 309.519531,47.584469 320.059326,47.584469 
	C316.441071,64.244202 312.891541,80.587486 309.241211,97.339615 
z"/>
<path fill="#6B4ADB" opacity="1.000000" stroke="none" 
	d="
M306.967896,41.850716 
	C298.455170,41.307018 293.747375,37.576374 293.131134,31.225742 
	C292.466522,24.376631 296.604797,18.843315 304.211609,16.947708 
	C306.891266,16.279947 309.806122,15.979885 312.544830,16.238983 
	C319.337067,16.881577 323.246246,20.467554 323.928925,26.061892 
	C324.660370,32.055943 321.072906,37.953705 315.105103,40.079384 
	C312.637115,40.958466 309.968414,41.274174 306.967896,41.850716 
z"/>
<path fill="#785BDE" opacity="1.000000" stroke="none" 
	d="
M596.066284,154.687897 
	C597.963501,147.882660 597.469849,140.717606 601.033081,134.876144 
	C601.708679,135.048355 602.384277,135.220551 603.059814,135.392746 
	C602.585693,138.382935 602.188782,141.387878 601.619629,144.359848 
	C600.745850,148.922729 599.975464,153.526062 598.705994,157.982559 
	C598.177734,159.837006 596.478027,161.357742 595.311035,163.030228 
	C594.220337,161.465256 592.656189,160.044373 592.127869,158.308258 
	C590.549561,153.121414 589.376953,147.811096 587.270691,142.516571 
	C585.584961,149.258881 583.899292,156.001205 581.905762,163.974854 
	C579.992371,162.676346 577.733643,161.986450 577.444824,160.812164 
	C575.399841,152.495026 573.758606,144.078613 571.988647,135.693848 
	C572.492554,135.371765 572.996460,135.049683 573.500427,134.727600 
	C574.414978,135.879654 575.848206,136.908691 576.155640,138.204742 
	C577.602234,144.303207 578.739929,150.474899 580.258240,157.951981 
	C582.127136,150.629074 583.559448,144.617157 585.255493,138.680557 
	C585.631897,137.363037 586.938171,136.311127 587.816223,135.136902 
	C588.690308,136.363815 589.972656,137.473343 590.365173,138.838699 
	C591.784607,143.775101 592.882996,148.803131 594.156555,153.782730 
	C594.412231,154.782410 594.905334,155.721390 595.545593,157.335022 
	C595.807678,156.058594 595.907288,155.573639 596.066284,154.687897 
z"/>
<path fill="#7A5DDE" opacity="1.000000" stroke="none" 
	d="
M392.885498,157.247009 
	C389.971649,152.301544 387.249664,147.676086 384.527710,143.050629 
	C384.256927,143.155792 383.986115,143.260956 383.715332,143.366104 
	C383.715332,148.777313 383.818817,154.192078 383.632019,159.596817 
	C383.592468,160.741394 382.492065,161.849319 381.880432,162.974121 
	C381.280518,161.851868 380.187347,160.740921 380.161224,159.605453 
	C380.000397,152.612503 380.022705,145.613068 380.137787,138.618317 
	C380.156647,137.471848 380.936462,136.337906 381.364624,135.198181 
	C382.681824,135.953171 384.513824,136.384537 385.227142,137.519180 
	C388.320374,142.439453 391.080811,147.568604 393.979370,152.611984 
	C394.430939,153.397766 394.971283,154.132584 396.282928,156.124771 
	C396.282928,149.450119 396.164673,144.241577 396.365143,139.045319 
	C396.415985,137.727356 397.481720,136.448547 398.081085,135.151733 
	C398.738281,136.382843 399.936707,137.601883 399.964478,138.847061 
	C400.138947,146.661285 400.052704,154.481339 400.052704,162.569061 
	C395.156189,164.156082 394.751312,159.958038 392.885498,157.247009 
z"/>
<path fill="#785BDE" opacity="1.000000" stroke="none" 
	d="
M282.212799,162.963303 
	C273.878815,158.299301 271.188965,146.964981 276.451782,139.568024 
	C278.915863,136.104721 282.323120,134.223358 286.740417,134.652679 
	C291.246368,135.090652 294.486633,137.187515 296.364899,141.465942 
	C300.649933,151.226730 296.317322,162.143524 287.464874,163.396851 
	C285.882385,163.620895 284.208435,163.198730 282.212799,162.963303 
M288.667236,159.593964 
	C294.080383,155.384079 295.660004,147.552948 292.224365,141.819794 
	C290.277710,138.571335 287.386261,137.238190 283.761444,138.345383 
	C279.074829,139.776901 276.821136,145.756897 278.250061,152.354004 
	C279.479248,158.028931 282.371643,160.268936 288.667236,159.593964 
z"/>
<path fill="#7253DC" opacity="1.000000" stroke="none" 
	d="
M303.818573,159.749054 
	C303.816833,151.462036 303.816833,143.649292 303.816833,135.920517 
	C307.082275,134.052231 308.264984,135.882523 309.136047,138.256866 
	C311.129181,143.689911 313.093994,149.133362 315.373474,155.406876 
	C317.131500,150.804855 318.308105,146.912643 320.086792,143.318359 
	C321.586670,140.287460 320.337219,134.701675 327.023254,135.277664 
	C327.023254,143.796600 327.068176,152.101639 326.955780,160.404526 
	C326.944153,161.262024 325.995331,162.106842 325.481384,162.957565 
	C324.929718,162.132812 323.919708,161.318863 323.899963,160.481537 
	C323.761078,154.600052 323.826355,148.713760 323.040375,142.636368 
	C320.765991,148.525635 318.491608,154.414902 316.217194,160.304169 
	C315.707428,160.338470 315.197632,160.372772 314.687836,160.407074 
	C312.458588,154.763153 310.229370,149.119247 308.000122,143.475327 
	C307.675568,143.516159 307.351044,143.557007 307.026520,143.597855 
	C307.026520,149.120163 307.086578,154.643768 306.967834,160.163513 
	C306.947876,161.091446 306.154663,162.002747 305.718750,162.921753 
	C305.085938,162.022278 304.453125,161.122818 303.818573,159.749054 
z"/>
<path fill="#785BDE" opacity="1.000000" stroke="none" 
	d="
M689.156311,161.497284 
	C689.105286,152.599579 689.105286,144.155350 689.105286,135.091858 
	C692.557495,135.091858 695.505615,134.989746 698.443909,135.116196 
	C702.671997,135.298141 706.562561,136.456589 707.609192,141.173294 
	C708.602478,145.649506 706.595398,148.900986 701.805542,150.873367 
	C703.965088,154.791824 706.064636,158.601349 708.164124,162.410889 
	C707.870789,162.768661 707.577454,163.126450 707.284119,163.484222 
	C705.986267,162.676071 704.347229,162.133240 703.466431,161.000732 
	C701.952759,159.054337 701.159241,156.536179 699.597046,154.642807 
	C698.265686,153.029251 696.278503,151.956863 694.581421,150.645050 
	C694.022644,151.007568 693.463867,151.370071 692.905090,151.732590 
	C692.905090,154.647552 692.980774,157.565018 692.884460,160.476791 
	C692.781982,163.577057 691.388062,163.839325 689.156311,161.497284 
M700.450684,138.645172 
	C698.084534,138.415909 695.718445,138.186630 693.239563,137.946442 
	C693.239563,141.666962 693.239563,144.696533 693.239563,147.899277 
	C697.233765,147.976593 701.569946,149.417786 703.413757,144.916580 
	C704.025452,143.423264 702.060059,140.874329 700.450684,138.645172 
z"/>
<path fill="#7557DD" opacity="1.000000" stroke="none" 
	d="
M490.095154,160.038269 
	C490.273712,161.219147 490.290985,162.059692 490.308258,162.900253 
	C489.151184,162.537445 487.510162,162.531769 486.928894,161.744080 
	C485.267731,159.492920 484.277435,156.735519 482.557373,154.542709 
	C481.292480,152.930191 479.294159,151.892975 477.622681,150.599380 
	C477.157166,150.969223 476.691620,151.339050 476.226074,151.708878 
	C476.226074,155.272217 476.226074,158.835541 476.226074,162.398880 
	C475.784058,162.737061 475.342041,163.075241 474.899994,163.413422 
	C473.970520,162.494186 472.872009,161.684296 472.178711,160.612350 
	C471.798615,160.024628 472.098389,158.994705 472.098267,158.164169 
	C472.097229,150.719650 472.097656,143.275131 472.097656,135.368134 
	C476.608551,135.368134 480.860138,134.670227 484.699280,135.627121 
	C487.042023,136.211044 489.736053,139.013992 490.528046,141.399384 
	C491.963379,145.722488 489.281830,148.949005 484.985565,151.192352 
	C486.673584,154.093903 488.303711,156.895935 490.095154,160.038269 
M481.954651,138.138947 
	C480.058655,138.138947 478.162689,138.138947 476.431946,138.138947 
	C476.431946,141.830750 476.431946,144.864227 476.431946,147.858154 
	C483.844543,148.362244 486.267548,147.554382 486.933319,144.341278 
	C487.632355,140.967636 486.223846,138.916809 481.954651,138.138947 
z"/>
<path fill="#F1F1F1" opacity="1.000000" stroke="none" 
	d="
M553.039734,45.867218 
	C551.624268,46.872105 550.193848,47.470264 548.423950,48.111267 
	C544.364685,42.428787 541.654175,36.324886 544.144226,29.472685 
	C546.709290,22.414146 552.406494,18.128222 559.366882,16.253992 
	C564.288208,14.928833 569.228088,16.172394 573.801208,21.734158 
	C570.838318,22.376450 568.357971,23.772858 566.682251,23.116148 
	C561.685974,21.158068 557.876282,22.219507 553.865601,25.491974 
	C549.151001,29.338833 549.416443,34.041874 550.588318,39.032570 
	C551.107483,41.243999 552.195129,43.321949 553.039734,45.867218 
z"/>
<path fill="#7A5DDE" opacity="1.000000" stroke="none" 
	d="
M448.296631,137.991455 
	C446.671204,139.195862 444.486603,140.331497 444.452972,141.527664 
	C444.413757,142.922043 445.990784,144.744644 447.346771,145.699142 
	C449.062225,146.906693 451.304352,147.337402 453.243378,148.262329 
	C456.682892,149.903046 458.758392,152.390839 458.124847,156.522537 
	C457.505951,160.558762 454.880341,163.049911 451.198792,163.130768 
	C447.768890,163.206085 444.273132,161.887115 440.891205,160.893250 
	C440.355530,160.735840 440.267395,159.055511 439.972351,158.079285 
	C440.971680,158.040497 442.025391,157.778748 442.959595,158.006760 
	C445.302490,158.578583 447.584076,159.860214 449.904449,159.894440 
	C451.307648,159.915161 453.501526,158.394119 453.934204,157.096863 
	C454.344025,155.868225 453.350739,153.481903 452.205994,152.576584 
	C450.190460,150.982681 447.514526,150.257217 445.252136,148.933914 
	C442.260651,147.184113 439.331879,144.598801 440.748169,141.045670 
	C441.734741,138.570587 444.526154,136.023117 447.074036,135.149933 
	C450.786713,133.877548 454.786072,134.616760 457.832947,140.006607 
	C454.024292,139.149796 451.356506,138.549637 448.296631,137.991455 
z"/>
<path fill="#7A5DDE" opacity="1.000000" stroke="none" 
	d="
M613.632935,159.883484 
	C616.972107,160.380066 619.988770,160.379745 621.021057,156.961273 
	C622.133484,153.277451 618.915649,152.203430 616.488159,150.883865 
	C614.891479,150.015915 613.117065,149.469238 611.540283,148.571335 
	C608.599548,146.896667 606.098511,144.310364 607.511536,140.958588 
	C608.526062,138.551910 611.157104,135.642258 613.455811,135.253098 
	C616.514587,134.735260 619.960876,136.412750 623.201355,137.291946 
	C623.397400,137.345123 623.539673,138.942749 623.178528,139.333923 
	C622.800293,139.743637 621.744568,139.752777 621.054382,139.607437 
	C618.989136,139.172546 616.939880,138.125031 614.919800,138.205582 
	C613.621521,138.257339 611.646423,139.677658 611.331787,140.849014 
	C611.023621,141.996704 612.086487,144.039337 613.172302,144.911148 
	C614.797852,146.216293 616.972412,146.835358 618.908691,147.756241 
	C622.930481,149.668915 626.031921,152.207779 624.902710,157.306488 
	C624.019043,161.296249 619.666321,164.284836 614.820862,163.530731 
	C611.765259,163.055206 608.900269,161.354950 605.410339,159.993668 
	C608.958374,155.365280 610.923767,159.788895 613.632935,159.883484 
z"/>
<path fill="#7A5DDE" opacity="1.000000" stroke="none" 
	d="
M180.598267,144.107330 
	C183.072861,145.557602 185.253479,146.760788 187.472275,147.888855 
	C193.302338,150.853012 195.115280,154.014343 193.368362,158.263016 
	C191.682220,162.363876 186.016830,164.725403 181.031723,163.140854 
	C178.877655,162.456161 176.909134,161.187714 174.856323,160.184448 
	C174.860153,159.653549 174.863998,159.122650 174.867828,158.591751 
	C176.014862,158.434448 177.220901,157.973053 178.296906,158.181808 
	C180.688126,158.645752 183.033646,159.996170 185.360046,159.914154 
	C186.906662,159.859634 189.264755,158.193176 189.642624,156.807327 
	C189.993774,155.519485 188.526138,153.300095 187.267227,152.125214 
	C185.866516,150.817993 183.799591,150.222000 182.017624,149.326431 
	C176.133148,146.369125 174.436386,142.761917 176.948563,138.537140 
	C179.316681,134.554657 185.909958,133.354248 190.293839,136.155151 
	C191.099899,136.670151 191.767563,137.401764 192.499100,138.033386 
	C192.379715,138.522873 192.260330,139.012360 192.140945,139.501846 
	C190.636307,139.204376 189.080490,139.061066 187.636292,138.581558 
	C182.573975,136.900711 179.817261,138.835663 180.598267,144.107330 
z"/>
<path fill="#785ADE" opacity="1.000000" stroke="none" 
	d="
M369.867798,155.752060 
	C366.940643,155.152847 363.798004,154.082260 361.511871,155.045166 
	C359.667755,155.821915 359.015991,159.173279 357.522064,161.145203 
	C356.769012,162.139175 355.320618,162.606384 353.472412,162.367981 
	C356.281830,154.083160 359.039124,145.779831 361.969360,137.537994 
	C362.319000,136.554611 363.728699,135.157837 364.439697,135.269760 
	C365.647278,135.459900 367.324921,136.473038 367.700867,137.532181 
	C370.622314,145.763336 373.279510,154.088257 376.109406,162.659851 
	C370.071136,163.794449 371.898590,158.293823 369.867798,155.752060 
M368.133972,149.655365 
	C367.059906,146.246246 365.985870,142.837128 364.536713,138.237289 
	C363.053284,143.546127 361.966705,147.434860 360.506042,152.662231 
	C363.859772,151.722046 366.030334,151.113556 368.133972,149.655365 
z"/>
<path fill="#7557DD" opacity="1.000000" stroke="none" 
	d="
M555.302124,163.035751 
	C553.997620,162.115387 552.451538,161.214478 552.429382,160.277481 
	C552.237000,152.157822 552.318542,144.031647 552.318542,135.992508 
	C559.381592,134.013245 567.034729,134.798645 568.745483,138.109314 
	C564.614319,138.109314 560.742615,138.109314 556.456604,138.109314 
	C556.456604,141.203827 556.456604,143.740433 556.456604,146.981445 
	C559.680359,146.981445 563.055298,146.981445 567.807495,146.981445 
	C564.049805,151.917755 559.549927,148.726288 556.272095,150.655731 
	C556.272095,153.454895 556.272095,156.377823 556.272095,159.969711 
	C559.747498,159.969711 563.180969,159.863647 566.598694,160.047806 
	C567.405762,160.091309 568.160156,161.111282 568.938782,161.682068 
	C568.203613,162.130768 567.482056,162.938828 566.730957,162.967285 
	C563.080688,163.105576 559.422485,163.035049 555.302124,163.035751 
z"/>
<path fill="#7253DC" opacity="1.000000" stroke="none" 
	d="
M659.164490,137.398300 
	C659.179626,145.174484 659.239258,152.490692 659.114929,159.803772 
	C659.097107,160.855713 658.192749,161.892578 657.698608,162.936432 
	C657.071960,161.860016 656.001709,160.821915 655.904785,159.699738 
	C655.649963,156.749130 655.818665,153.761963 655.818665,150.410477 
	C651.493286,150.410477 647.467773,150.410477 642.886475,150.410477 
	C642.886475,153.593353 643.058838,156.718536 642.794128,159.806259 
	C642.699829,160.905594 641.544861,161.913986 640.874084,162.963867 
	C640.287537,161.996155 639.211548,161.038025 639.192322,160.059174 
	C639.048889,152.746780 639.046631,145.428894 639.195374,138.116699 
	C639.215393,137.132599 640.326599,136.170700 640.932556,135.198517 
	C641.583191,136.125748 642.703552,137.009140 642.794861,137.988525 
	C643.051575,140.740799 642.884399,143.532608 642.884399,146.530853 
	C647.347839,146.530853 651.244751,146.530853 655.833679,146.530853 
	C655.833679,143.332977 655.738892,140.389923 655.898254,137.460693 
	C655.939758,136.697617 656.773804,135.977676 657.243896,135.237915 
	C657.879272,135.804398 658.514648,136.370865 659.164490,137.398300 
z"/>
<path fill="#EFEEF1" opacity="1.000000" stroke="none" 
	d="
M583.714111,32.984314 
	C582.543762,40.941513 581.016602,48.864159 579.404053,57.229744 
	C576.623108,54.013123 574.340576,51.372993 571.855408,48.452732 
	C578.520691,45.322586 580.212891,41.858570 577.249939,37.339954 
	C575.706482,34.986164 574.349670,34.455078 572.069214,36.273373 
	C570.922058,37.188053 569.525635,38.002251 568.121033,38.310043 
	C567.125732,38.528141 565.185791,38.071838 564.983643,37.472595 
	C564.626404,36.413719 564.825500,34.432186 565.574036,33.859737 
	C569.228394,31.064913 573.141479,28.608438 576.878174,26.089476 
	C579.200623,28.548542 581.278992,30.749149 583.714111,32.984314 
z"/>
<path fill="#7254DC" opacity="1.000000" stroke="none" 
	d="
M502.009460,138.563995 
	C501.162872,141.231277 500.793701,143.758148 500.324127,146.972031 
	C503.700134,146.972031 506.322784,146.836380 508.916199,147.052170 
	C509.726501,147.119568 510.457855,148.135498 511.225342,148.717239 
	C510.477600,149.153854 509.749786,149.920380 508.978485,149.966949 
	C506.368591,150.124573 503.743317,150.027084 500.908112,150.027084 
	C500.908112,153.520416 500.908112,156.444473 500.908112,159.981918 
	C504.525024,159.981918 507.975464,159.897141 511.415375,160.049881 
	C512.146667,160.082367 512.839539,160.980164 513.550110,161.479294 
	C512.853638,161.991959 512.169434,162.928009 511.458740,162.948578 
	C506.834503,163.082321 502.204498,163.017242 497.276733,163.017242 
	C497.276733,153.746475 497.276733,144.833344 497.276733,135.124359 
	C501.760345,135.124359 506.345764,135.058258 510.925049,135.195602 
	C511.612122,135.216217 512.270630,136.189163 512.942322,136.721558 
	C512.284790,137.256454 511.657379,138.203308 510.964417,138.254044 
	C508.149506,138.460098 505.314484,138.391129 502.009460,138.563995 
z"/>
<path fill="#7254DC" opacity="1.000000" stroke="none" 
	d="
M720.128540,146.955078 
	C723.042603,147.536255 725.488037,148.106934 727.933411,148.677612 
	C725.534485,149.129791 723.139526,149.604568 720.734497,150.021378 
	C719.942322,150.158676 719.124084,150.146103 718.006470,150.223679 
	C718.006470,153.349518 718.006470,156.265381 718.006470,159.962921 
	C722.091858,159.962921 726.260742,159.962921 730.800354,159.962921 
	C729.059814,163.373169 727.348450,163.602570 714.368896,162.812180 
	C714.368896,153.820786 714.368896,144.793640 714.368896,135.120132 
	C718.789001,135.120132 723.222229,135.032166 727.645508,135.202072 
	C728.431946,135.232269 729.177307,136.333893 729.941589,136.940765 
	C729.211609,137.405792 728.499390,138.235565 727.748535,138.272141 
	C724.635925,138.423798 721.511719,138.335815 716.727173,138.335815 
	C717.919983,141.837296 718.789917,144.390930 720.128540,146.955078 
z"/>
<path fill="#785ADE" opacity="1.000000" stroke="none" 
	d="
M525.660645,156.076843 
	C526.476562,156.237503 527.571899,156.190872 527.682434,155.836853 
	C529.514648,149.966995 531.142883,144.032791 533.021606,138.178726 
	C533.437866,136.881729 534.641296,135.837357 535.482239,134.676666 
	C536.067749,134.996109 536.653320,135.315536 537.238831,135.634979 
	C535.920227,139.977081 534.629639,144.327957 533.274963,148.658752 
	C531.985962,152.779434 530.747681,156.923920 529.213989,160.954041 
	C528.866272,161.867737 527.448975,162.751923 526.415833,162.901184 
	C525.665100,163.009659 524.225098,162.057007 523.965393,161.284119 
	C521.128906,152.844040 518.464539,144.346146 515.753357,135.863968 
	C516.230652,135.495743 516.708008,135.127502 517.185303,134.759262 
	C518.199097,135.866638 519.706360,136.808853 520.141846,138.109802 
	C522.088806,143.926163 523.730164,149.844818 525.660645,156.076843 
z"/>
<path fill="#785BDE" opacity="1.000000" stroke="none" 
	d="
M260.765320,134.872879 
	C264.329102,135.437057 267.526611,136.072601 270.724121,136.708130 
	C270.724426,137.285568 270.724762,137.863007 270.725067,138.440445 
	C269.845917,138.871887 268.840942,139.830353 268.106659,139.655045 
	C258.424103,137.343613 252.746124,143.029526 255.158096,152.751434 
	C256.813507,159.423737 261.805908,161.673218 268.042145,158.624023 
	C268.796234,158.255310 269.744751,158.284286 270.794067,158.094421 
	C269.489990,162.886215 264.876648,164.824463 259.764984,163.114487 
	C254.181702,161.246750 251.197021,156.814987 250.962463,150.044052 
	C250.689743,142.172531 253.432236,137.784210 260.765320,134.872879 
z"/>
<path fill="#7455DD" opacity="1.000000" stroke="none" 
	d="
M199.122101,160.688812 
	C199.133911,152.408127 199.154602,144.598083 199.196487,136.788147 
	C199.198135,136.481857 199.402145,136.176636 199.515106,135.872101 
	C206.404984,134.076950 213.586960,134.810181 215.185150,137.962524 
	C211.207718,137.962524 207.474594,137.962524 203.319885,137.962524 
	C203.319885,141.137161 203.319885,143.807541 203.319885,146.989914 
	C206.033798,146.989914 208.656647,146.911652 211.268326,147.047836 
	C211.880753,147.079773 212.455353,147.837021 213.047363,148.260590 
	C212.451294,148.844177 211.888855,149.884644 211.253296,149.931396 
	C208.650314,150.122894 206.025040,150.011353 203.155731,150.011353 
	C203.155731,153.435944 203.155731,156.359711 203.155731,160.026093 
	C207.345123,160.026093 211.521881,160.026093 216.879410,160.026093 
	C215.497498,161.686661 214.988632,162.847931 214.445892,162.863983 
	C209.800964,163.001373 205.148407,162.981827 200.502899,162.846252 
	C200.030823,162.832474 199.590012,161.747391 199.122101,160.688812 
z"/>
<path fill="#7253DC" opacity="1.000000" stroke="none" 
	d="
M678.699829,150.018768 
	C675.942505,150.026443 673.644653,150.026443 671.010986,150.026443 
	C671.010986,153.332535 671.010986,156.245712 671.010986,159.904938 
	C674.926270,159.904938 678.938782,159.904938 683.251770,159.904938 
	C681.750183,163.377640 678.106140,163.851791 667.157532,162.616257 
	C667.157532,153.646133 667.157532,144.635590 667.157532,135.664673 
	C675.678284,134.315628 681.003845,134.815491 683.468262,137.790421 
	C678.996765,138.040421 675.039062,138.261688 670.890503,138.493637 
	C670.890503,141.258118 670.890503,143.716415 670.890503,146.980331 
	C673.496948,146.980331 676.078430,146.883820 678.644714,147.038559 
	C679.424561,147.085571 680.162598,147.825974 680.919739,148.248779 
	C680.332886,148.836212 679.746094,149.423645 678.699829,150.018768 
z"/>
<path fill="#6D4DDB" opacity="1.000000" stroke="none" 
	d="
M229.277710,138.165314 
	C222.005524,138.561722 226.490067,143.545731 224.761063,146.974701 
	C228.875000,146.974701 232.252930,146.974701 235.630844,146.974701 
	C233.260254,151.865387 228.771347,148.718155 225.435211,150.637604 
	C225.435211,153.412750 225.435211,156.333878 225.435211,160.009033 
	C229.629349,160.009033 233.811890,160.009033 238.325058,160.009033 
	C236.575394,163.386887 232.043686,163.906403 222.114380,162.501221 
	C222.114380,153.639908 222.114380,144.735519 222.114380,135.847336 
	C228.773865,134.292511 235.672028,134.842026 238.681656,138.164581 
	C235.073959,138.164581 232.403687,138.164581 229.277710,138.165314 
z"/>
<path fill="#6D4DDB" opacity="1.000000" stroke="none" 
	d="
M427.909180,150.012283 
	C425.966644,150.012314 424.476685,150.012314 422.575745,150.012314 
	C422.575745,153.260330 422.575745,156.292664 422.575745,159.522736 
	C426.497223,161.083618 431.461792,158.600510 435.237823,161.011917 
	C435.132233,161.566254 435.026672,162.120590 434.921082,162.674927 
	C429.718964,162.674927 424.516846,162.674927 419.073914,162.674927 
	C419.073914,153.567078 419.073914,144.664001 419.073914,135.905701 
	C424.477295,135.905701 429.643585,135.905701 434.809845,135.905701 
	C434.830688,136.532333 434.851501,137.158966 434.872345,137.785599 
	C430.835236,137.999619 426.798126,138.213638 422.479309,138.442596 
	C422.479309,141.332413 422.479309,143.890488 422.479309,146.713501 
	C426.060333,146.957977 429.485138,147.191803 432.909912,147.425613 
	C432.880859,148.138931 432.851837,148.852249 432.822784,149.565552 
	C431.335785,149.714462 429.848755,149.863358 427.909180,150.012283 
z"/>
<path fill="#6F4FDC" opacity="1.000000" stroke="none" 
	d="
M339.095795,135.124283 
	C341.716980,135.196564 343.893494,135.116104 346.028961,135.374512 
	C350.068909,135.863388 352.915009,137.966812 353.363556,142.208618 
	C353.813507,146.464157 352.054443,149.776123 347.804321,151.002289 
	C344.846497,151.855621 341.697632,152.046921 338.151245,152.610733 
	C338.151245,155.355911 338.255890,158.151428 338.078339,160.928909 
	C338.033447,161.631226 337.088013,162.275955 336.556396,162.947144 
	C335.987793,162.313980 334.933075,161.687408 334.924408,161.046631 
	C334.816132,153.067413 334.765686,145.083023 335.027893,137.110733 
	C335.050934,136.409897 337.376465,135.784805 339.095795,135.124283 
M338.144745,146.240173 
	C339.569885,151.895370 343.706818,148.730637 346.378662,148.230301 
	C347.828125,147.958862 349.604767,144.983429 349.674347,143.167923 
	C349.732666,141.646729 347.829407,139.271149 346.253296,138.652054 
	C343.980530,137.759262 341.217743,138.113937 338.141174,137.899902 
	C338.141174,140.796982 338.141174,143.061340 338.144745,146.240173 
z"/>
<path fill="#EBE9F0" opacity="1.000000" stroke="none" 
	d="
M544.750244,49.988220 
	C543.288269,51.651634 541.484131,53.250828 539.235535,54.685345 
	C535.881042,52.341797 532.970886,50.162926 530.060791,47.984047 
	C525.015991,47.931137 519.971130,47.878227 514.467041,47.919998 
	C517.146606,41.159683 528.836731,38.604874 536.496460,43.375103 
	C539.376221,45.168499 541.784668,47.718788 544.750244,49.988220 
z"/>
<path fill="#7C5FDF" opacity="1.000000" stroke="none" 
	d="
M541.071289,144.069946 
	C541.076111,141.582031 540.899780,139.558044 541.168213,137.594879 
	C541.287720,136.720749 542.303101,135.969116 542.911865,135.161896 
	C543.577698,135.910400 544.808472,136.648666 544.822205,137.409027 
	C544.964355,145.236847 544.963135,153.069229 544.819031,160.896973 
	C544.805969,161.606781 543.521240,162.293182 542.827026,162.990448 
	C542.245728,162.177872 541.185303,161.379395 541.160950,160.550491 
	C541.004578,155.223572 541.075256,149.889999 541.071289,144.069946 
z"/>
<path fill="#7C5FDF" opacity="1.000000" stroke="none" 
	d="
M411.045349,137.429062 
	C411.055695,146.136963 411.055695,154.391098 411.055695,162.645248 
	C410.544708,162.901810 410.033722,163.158371 409.522736,163.414932 
	C408.774597,162.349976 407.405914,161.300903 407.378204,160.217514 
	C407.187500,152.765228 407.227173,145.305008 407.341217,137.849609 
	C407.355103,136.941895 408.253754,136.047729 408.742310,135.147278 
	C409.506561,135.756622 410.270782,136.365967 411.045349,137.429062 
z"/>
<path fill="#EFEEF1" opacity="1.000000" stroke="none" 
	d="
M506.357697,100.965004 
	C507.681915,97.149582 509.353607,93.296204 511.216492,89.185806 
	C512.809387,88.588425 514.208252,87.998726 515.613647,87.982834 
	C516.844360,87.968918 518.713745,88.252571 519.146301,89.039513 
	C519.613708,89.889740 519.173096,92.027039 518.380432,92.647926 
	C514.628845,95.586548 510.621429,98.198601 506.357697,100.965004 
z"/>
<path fill="#EFEEF1" opacity="1.000000" stroke="none" 
	d="
M529.088623,76.029587 
	C528.813049,77.792114 528.537537,79.554649 528.100708,81.662354 
	C524.240967,81.008690 520.542542,80.009850 516.467468,79.009895 
	C517.198730,76.453781 518.306580,73.898773 519.828125,71.428703 
	C523.190674,73.018959 526.139648,74.524269 529.088623,76.029587 
z"/>
<path fill="#EBE9F0" opacity="1.000000" stroke="none" 
	d="
M513.657043,48.039337 
	C512.215576,52.573036 510.418427,57.139801 508.363892,61.956680 
	C507.843018,56.762074 507.526001,51.297684 513.657043,48.039337 
z"/>
<path fill="#FCFBFE" opacity="1.000000" stroke="none" 
	d="
M529.316284,75.745270 
	C526.139648,74.524269 523.190674,73.018959 520.083740,71.197418 
	C523.249939,63.484623 526.574036,56.088047 529.979492,48.337761 
	C532.970886,50.162926 535.881042,52.341797 538.938538,54.834412 
	C535.905273,61.919090 532.724609,68.690025 529.316284,75.745270 
z"/>
<path fill="#FCFBFE" opacity="1.000000" stroke="none" 
	d="
M572.023865,90.792191 
	C571.278442,92.487701 570.911133,94.381874 569.829956,94.975197 
	C566.947083,96.557152 563.757141,97.579536 560.689270,98.824379 
	C559.780884,96.169014 557.735474,93.309517 558.168945,90.895065 
	C559.708618,82.319557 561.834534,73.820213 564.278015,65.449562 
	C565.341431,61.806526 568.491333,59.608307 572.543030,61.140530 
	C576.521606,62.645103 577.741211,65.651756 576.610901,69.982262 
	C574.851562,76.722733 573.564026,83.586342 572.023865,90.792191 
z"/>
<path fill="#FDFCFE" opacity="1.000000" stroke="none" 
	d="
M751.088867,61.451897 
	C749.774109,71.736168 748.685059,81.615524 746.931519,91.375473 
	C746.372620,94.486229 744.475281,97.645363 742.381226,100.089088 
	C741.003601,101.696732 737.882141,103.157486 736.086426,102.671387 
	C734.372559,102.207428 732.341858,99.202484 732.212891,97.200981 
	C731.408997,84.724350 733.223938,72.647369 739.407410,61.531029 
	C740.046753,60.381626 740.882019,59.291039 741.816284,58.364552 
	C745.874878,54.339371 749.515625,55.401897 751.088867,61.451897 
z"/>
<path fill="#FBFAFE" opacity="1.000000" stroke="none" 
	d="
M650.135986,103.060684 
	C648.247253,100.708374 645.552734,98.439941 645.460205,96.069977 
	C644.982239,83.821426 646.760437,71.882332 653.129456,61.087757 
	C654.098816,59.444847 655.604248,57.887520 657.233887,56.912693 
	C660.696899,54.841122 663.876343,56.031414 664.197998,60.012608 
	C665.324341,73.953194 663.843323,87.555710 656.225159,99.734291 
	C655.187256,101.393562 652.470093,102.002480 650.135986,103.060684 
z"/>
<path fill="#FCFBFE" opacity="1.000000" stroke="none" 
	d="
M166.673706,75.002213 
	C161.901001,75.003815 157.592148,75.003815 152.671906,75.003815 
	C154.255310,68.374474 155.927322,62.309132 161.174393,58.224140 
	C162.767853,56.983597 165.750137,56.074520 167.384415,56.746086 
	C169.029175,57.421963 170.597534,60.187313 170.758698,62.155087 
	C171.051880,65.734779 170.430298,69.427094 169.832443,73.012711 
	C169.700653,73.803146 168.075211,74.344536 166.673706,75.002213 
z"/>
<path fill="#FCFBFE" opacity="1.000000" stroke="none" 
	d="
M373.948669,62.472885 
	C373.635101,66.703476 373.297272,70.502701 372.929443,74.639252 
	C367.255554,74.639252 361.837341,74.639252 355.856201,74.639252 
	C356.994446,68.695267 358.849121,63.156494 363.269135,58.883259 
	C368.178436,54.136967 372.043060,55.369064 373.948669,62.472885 
z"/>
<path fill="#FDFDFF" opacity="1.000000" stroke="none" 
	d="
M288.285645,159.712250 
	C282.371643,160.268936 279.479248,158.028931 278.250061,152.354004 
	C276.821136,145.756897 279.074829,139.776901 283.761444,138.345383 
	C287.386261,137.238190 290.277710,138.571335 292.224365,141.819794 
	C295.660004,147.552948 294.080383,155.384079 288.285645,159.712250 
z"/>
<path fill="#FEFEFF" opacity="1.000000" stroke="none" 
	d="
M700.861816,138.726593 
	C702.060059,140.874329 704.025452,143.423264 703.413757,144.916580 
	C701.569946,149.417786 697.233765,147.976593 693.239563,147.899277 
	C693.239563,144.696533 693.239563,141.666962 693.239563,137.946442 
	C695.718445,138.186630 698.084534,138.415909 700.861816,138.726593 
z"/>
<path fill="#FDFDFF" opacity="1.000000" stroke="none" 
	d="
M482.369812,138.236572 
	C486.223846,138.916809 487.632355,140.967636 486.933319,144.341278 
	C486.267548,147.554382 483.844543,148.362244 476.431946,147.858154 
	C476.431946,144.864227 476.431946,141.830750 476.431946,138.138947 
	C478.162689,138.138947 480.058655,138.138947 482.369812,138.236572 
z"/>
<path fill="#EFECFB" opacity="1.000000" stroke="none" 
	d="
M368.167419,150.080215 
	C366.030334,151.113556 363.859772,151.722046 360.506042,152.662231 
	C361.966705,147.434860 363.053284,143.546127 364.536713,138.237289 
	C365.985870,142.837128 367.059906,146.246246 368.167419,150.080215 
z"/>
<path fill="#F7F5FD" opacity="1.000000" stroke="none" 
	d="
M338.142944,145.782944 
	C338.141174,143.061340 338.141174,140.796982 338.141174,137.899902 
	C341.217743,138.113937 343.980530,137.759262 346.253296,138.652054 
	C347.829407,139.271149 349.732666,141.646729 349.674347,143.167923 
	C349.604767,144.983429 347.828125,147.958862 346.378662,148.230301 
	C343.706818,148.730637 339.569885,151.895370 338.142944,145.782944 
z"/>
</svg>